<?xml version="1.0" encoding="iso-8859-1"?>
<!-- Generator: Adobe Illustrator 16.0.0, SVG Export Plug-In . SVG Version: 6.00 Build 0)  -->
<!DOCTYPE svg PUBLIC "-//W3C//DTD SVG 1.1//EN" "http://www.w3.org/Graphics/SVG/1.1/DTD/svg11.dtd">
<svg version="1.1" id="Capa_1" xmlns="http://www.w3.org/2000/svg" xmlns:xlink="http://www.w3.org/1999/xlink" x="0px" y="0px"
	 width="41.585px" height="45.437px" viewBox="0 0 41.585 45.437" style="enable-background:new 0 0 41.585 45.437;"
	 xml:space="preserve">
<path d="M39.477,11.11c-0.371-3.627-0.962-6.451-1.897-7.561c-3.855-4.564-30.859-4.898-33.925,0c-0.75,1.2-1.276,4.014-1.629,7.567
	C0.887,11.25,0,12.209,0,13.383v4.443c0,0.988,0.626,1.821,1.5,2.146c-0.207,6.998-0.039,14.299,0.271,17.93
	c0,2.803,1.883,2.338,1.883,2.338h1.765v3.026c0,1.2,1.237,2.171,2.761,2.171c1.526,0,2.763-0.971,2.763-2.171v-3.026h20.534v3.026
	c0,1.2,1.236,2.171,2.762,2.171c1.524,0,2.761-0.971,2.761-2.171v-3.026h0.58c0,0,2.216,0.304,2.358-1.016
	c0-3.621,0.228-11.646,0.04-19.221c0.929-0.291,1.607-1.147,1.607-2.177v-4.443C41.586,12.181,40.656,11.206,39.477,11.11z
	 M10.25,4.2h20.735v3.137H10.25V4.2z M10.546,36.667c-1.628,0-2.947-1.32-2.947-2.948c0-1.627,1.319-2.946,2.947-2.946
	c1.628,0,2.948,1.319,2.948,2.946C13.494,35.347,12.175,36.667,10.546,36.667z M30.874,36.667c-1.627,0-2.949-1.32-2.949-2.948
	c0-1.627,1.321-2.946,2.949-2.946s2.947,1.319,2.947,2.946C33.822,35.347,32.502,36.667,30.874,36.667z M34.621,23.767H6.614V9.077
	h28.007V23.767z"/>
<g>
</g>
<g>
</g>
<g>
</g>
<g>
</g>
<g>
</g>
<g>
</g>
<g>
</g>
<g>
</g>
<g>
</g>
<g>
</g>
<g>
</g>
<g>
</g>
<g>
</g>
<g>
</g>
<g>
</g>
</svg>
