<?xml version="1.0" encoding="utf-8"?>
<!-- Generator: Adobe Illustrator 17.1.0, SVG Export Plug-In . SVG Version: 6.00 Build 0)  -->
<!DOCTYPE svg PUBLIC "-//W3C//DTD SVG 1.1//EN" "http://www.w3.org/Graphics/SVG/1.1/DTD/svg11.dtd">
<svg version="1.1" id="Layer_1" xmlns="http://www.w3.org/2000/svg" xmlns:xlink="http://www.w3.org/1999/xlink" x="0px" y="0px"
	 width="1000px" height="1000px" viewBox="0 0 1000 1000" enable-background="new 0 0 1000 1000" xml:space="preserve">
<g>
	<path d="M868.995,241.083l35.355,35.355l15.218-15.218c26.32-26.32,26.32-69.147,0-95.468l-91.49-91.49
		c-12.75-12.749-29.702-19.771-47.732-19.771c-18.032,0-34.983,7.021-47.733,19.771l-15.218,15.219l35.355,35.355l15.219-15.219
		c3.306-3.306,7.702-5.127,12.378-5.127s9.072,1.821,12.378,5.127l91.489,91.489c6.825,6.825,6.825,17.932,0,24.757L868.995,241.083
		z"/>
	<path d="M91.827,769.413C55.213,806.027,12.928,907.675,49.543,944.29c28.087,28.087,94.438,9.746,140.35-16.849
		c3.323-1.925,6.224-6.596,6.425-10.431c1.565-29.888,5.461-74.824,5.461-74.824c0.013-1.5,0.896-2.383,2.396-2.396l80.602-1.767
		c2.064-0.045,3.727-1.709,3.77-3.773l1.687-80.521c0.013-1.5,0.896-2.383,2.397-2.397c0,0,52.667-0.465,74.189-0.659
		c4.97-0.045,11.85-2.931,15.365-6.445c16.873-16.869,64.503-64.495,108.975-108.965L358.568,502.671L91.827,769.413z"/>
	<path d="M886.672,294.116l-35.355-35.355L735.072,142.515l-35.355-35.355L636.96,44.404c-8.829-8.829-20.402-13.244-31.974-13.244
		c-11.572,0-23.145,4.415-31.974,13.244L339.939,277.476c-47.278,47.278-47.278,123.932,0,171.21l36.307,36.307l132.591,132.591
		l36.309,36.309c23.639,23.639,54.622,35.459,85.605,35.459s61.966-11.82,85.605-35.459l233.073-233.072
		c17.659-17.659,17.659-46.29,0-63.948L886.672,294.116z M610.563,525.399c-6.336,6.337-14.178,10.613-22.715,12.524
		c-3.338,0.747-6.778,1.144-10.282,1.144c-12.466,0-24.185-4.854-32.998-13.668l-76.136-76.136
		c-8.814-8.813-13.668-20.532-13.668-32.998c0-3.56,0.409-7.055,1.18-10.442c1.928-8.475,6.191-16.258,12.488-22.555
		c8.813-8.814,20.532-13.668,32.997-13.668c12.466,0,24.185,4.854,32.998,13.668l3.092,3.092l69.621,69.621l3.423,3.423
		c8.814,8.813,13.668,20.532,13.668,32.998C624.231,504.867,619.378,516.586,610.563,525.399z M840.028,387.044l-45.319,45.319
		c-29.295,29.295-76.792,29.295-106.087,0L561.469,305.21c-29.295-29.295-29.295-76.792,0-106.087l45.319-45.319
		c10.942-10.942,28.682-10.942,39.625,0l10.539,10.54L829.489,336.88l10.54,10.54C850.97,358.361,850.97,376.102,840.028,387.044z"
		/>
	<path d="M513.215,404.481c-3.147-3.147-7.333-4.881-11.785-4.881c-4.451,0-8.637,1.733-11.784,4.881s-4.881,7.333-4.881,11.784
		c0,4.452,1.733,8.638,4.881,11.785l76.136,76.136c3.147,3.147,7.333,4.881,11.785,4.881c4.451,0,8.637-1.733,11.784-4.881
		s4.881-7.333,4.881-11.784c0-4.452-1.733-8.638-4.881-11.785L513.215,404.481z"/>
</g>
</svg>
