<?xml version="1.0" encoding="iso-8859-1"?>
<!-- Generator: Adobe Illustrator 17.0.0, SVG Export Plug-In . SVG Version: 6.00 Build 0)  -->
<!DOCTYPE svg PUBLIC "-//W3C//DTD SVG 1.1//EN" "http://www.w3.org/Graphics/SVG/1.1/DTD/svg11.dtd">
<svg version="1.1" id="Capa_1" xmlns="http://www.w3.org/2000/svg" xmlns:xlink="http://www.w3.org/1999/xlink" x="0px" y="0px"
	 width="64px" height="64px" viewBox="0 0 64 64" style="enable-background:new 0 0 64 64;" xml:space="preserve">
<g>
	<path d="M60.9,26.561l-0.502-1.458h-0.356c-0.964,0-2.582-0.411-4.296-0.846c-2.115-0.538-4.513-1.146-6.406-1.172
		c-1.383-0.019-4.005-1.377-6.781-2.815c-3.636-1.884-7.758-4.019-10.726-4.019H20.417c-1.976,0-2.962,0.239-3.915,0.47
		c-0.697,0.168-1.355,0.328-2.412,0.403c-1.71,0.121-2.961,0.657-3.675,1.051c0.14-0.559-0.16-1.289-0.915-1.362
		c-2.311-0.223-4.565-0.364-6.558-1.676c-1.081-0.712-2.081,1.021-1.009,1.727c0.997,0.656,2.059,1.054,3.157,1.324H4.942
		l1.446,1.943c-0.409,0.211-0.787,0.417-1.075,0.601c-0.218,0.14-0.37,0.203-0.493,0.254c-0.758,0.318-0.758,0.318-3.188,5.363
		c-2.235,4.64-0.528,7.602,0.576,8.881c0.023-0.221,0.057-0.439,0.1-0.653c0.044-0.219,0.099-0.434,0.163-0.646
		c0.893-2.992,3.667-5.181,6.945-5.181c3.998,0,7.25,3.252,7.25,7.25c0,0.218-0.014,0.432-0.033,0.645
		c-0.015,0.168-0.04,0.332-0.066,0.496c-0.027,0.168-0.057,0.335-0.095,0.499c6.087,0.05,20.115,0.169,29.963,0.288
		c-0.046-0.166-0.092-0.332-0.126-0.502c-0.033-0.164-0.055-0.332-0.077-0.501c-0.039-0.304-0.066-0.612-0.066-0.926
		c0-3.998,3.252-7.25,7.25-7.25s7.25,3.252,7.25,7.25c0,0.385-0.039,0.76-0.097,1.13c-0.027,0.171-0.057,0.34-0.096,0.507
		c-0.04,0.171-0.079,0.342-0.131,0.507c1.219-0.063,2.007-0.303,2.462-1.03c0.488-0.78,0.487-1.953,0.487-4.082v-0.182
		C63.292,28.239,61.585,26.909,60.9,26.561z M9.26,18.789c-0.19,0.083-0.407,0.178-0.658,0.29l-0.284-0.382
		C8.631,18.729,8.945,18.759,9.26,18.789z"/>
	<path d="M9.417,42.25c2.886,0,5.309-1.959,6.027-4.618c0.044-0.164,0.084-0.33,0.115-0.499c0.03-0.164,0.058-0.328,0.076-0.496
		c0.021-0.209,0.032-0.422,0.032-0.637c0-3.452-2.798-6.25-6.25-6.25c-3.08,0-5.633,2.229-6.149,5.161
		c-0.035,0.197-0.06,0.397-0.076,0.6C3.179,35.673,3.167,35.835,3.167,36c0,0.017,0.002,0.033,0.003,0.05
		C3.196,39.478,5.982,42.25,9.417,42.25z"/>
	<path d="M47.478,37.942c0.817,2.5,3.165,4.308,5.939,4.308c2.69,0,4.977-1.703,5.858-4.087c0.061-0.164,0.115-0.33,0.162-0.5
		c0.045-0.164,0.086-0.329,0.118-0.498c0.071-0.378,0.113-0.767,0.113-1.165c0-3.452-2.798-6.25-6.25-6.25s-6.25,2.798-6.25,6.25
		c0,0.32,0.032,0.632,0.078,0.939c0.026,0.169,0.056,0.336,0.095,0.501C47.38,37.609,47.424,37.777,47.478,37.942z"/>
</g>
</svg>
