<?xml version="1.0" encoding="utf-8"?>
<!-- Generator: Adobe Illustrator 17.0.0, SVG Export Plug-In . SVG Version: 6.00 Build 0)  -->
<!DOCTYPE svg PUBLIC "-//W3C//DTD SVG 1.1//EN" "http://www.w3.org/Graphics/SVG/1.1/DTD/svg11.dtd">
<svg version="1.1" id="Layer_1" xmlns="http://www.w3.org/2000/svg" xmlns:xlink="http://www.w3.org/1999/xlink" x="0px" y="0px"
	 width="792px" height="612px" viewBox="0 0 792 612" enable-background="new 0 0 792 612" xml:space="preserve">
<g>
	<path d="M532.811,478.125h-2.936h-9.562v29.032v45.661c3.098-1.262,6.311-2.142,9.562-2.85v-44.322
		c17.299-4.38,31.202-17.193,37.083-33.842c-6.751-2.945-12.995-6.818-18.57-11.485
		C546.973,468.773,542.746,478.125,532.811,478.125z"/>
	<path d="M501.188,505.005v41.826c3.404,2.104,6.608,4.542,9.562,7.287v-47.153v-38.403h-7.105c-0.928,0-1.673-0.143-2.458-0.258
		c-3.959-0.564-6.311-2.333-7.554-3.921c-2.534-3.242-2.266-7.095-2.008-8.702v-15.807c0-2.639,2.142-4.781,4.781-4.781
		s4.781,2.142,4.781,4.781l-0.143,17.652c-0.067,0.373-0.019,1.473,0.134,1.473h0.01c0.115,0,0.794,0,2.467,0h7.095v-19.125
		c0-0.66,0.134-1.291,0.373-1.865c0.727-1.712,2.419-2.917,4.408-2.917c2.639,0,4.781,2.142,4.781,4.781v28.688h9.562h2.936
		c5.432,0,6.627-12.03,6.627-15.013v-2.113c-3.835-4.456-7.162-9.343-9.897-14.592c-0.975-1.874-1.913-3.777-2.735-5.737
		c-3.815-9.094-5.929-19.068-5.929-29.519c0-0.201,0.029-0.402,0.029-0.602c-1.367-0.105-2.735-0.21-4.121-0.21
		c-29.424,0-53.282,23.858-53.282,53.282C463.492,478.058,479.366,498.34,501.188,505.005z"/>
	<path d="M264.889,571.694c11.131-13.311,27.731-20.731,45.651-20.731c10.165,0,19.718,2.677,28.085,7.344V191.25H233.438v359.254
		C245.888,554.051,256.913,561.558,264.889,571.694z M262.125,497.25h9.562v19.125h-9.562V497.25z M262.125,468.562h9.562v19.125
		h-9.562V468.562z M262.125,439.875h9.562V459h-9.562V439.875z M262.125,411.188h9.562v19.125h-9.562V411.188z M262.125,382.5h9.562
		v19.125h-9.562V382.5z M262.125,353.812h9.562v19.125h-9.562V353.812z M262.125,325.125h9.562v19.125h-9.562V325.125z
		 M262.125,296.438h9.562v19.125h-9.562V296.438z M262.125,267.75h9.562v19.125h-9.562V267.75z M309.938,286.875h-9.562V267.75
		h9.562V286.875z M309.938,315.562h-9.562v-19.125h9.562V315.562z M309.938,344.25h-9.562v-19.125h9.562V344.25z M309.938,372.938
		h-9.562v-19.125h9.562V372.938z M309.938,401.625h-9.562V382.5h9.562V401.625z M309.938,430.312h-9.562v-19.125h9.562V430.312z
		 M309.938,459h-9.562v-19.125h9.562V459z M309.938,487.688h-9.562v-19.125h9.562V487.688z M309.938,516.375h-9.562V497.25h9.562
		V516.375z M281.25,497.25h9.562v19.125h-9.562V497.25z M281.25,468.562h9.562v19.125h-9.562V468.562z M281.25,439.875h9.562V459
		h-9.562V439.875z M281.25,411.188h9.562v19.125h-9.562V411.188z M281.25,382.5h9.562v19.125h-9.562V382.5z M281.25,353.812h9.562
		v19.125h-9.562V353.812z M281.25,325.125h9.562v19.125h-9.562V325.125z M281.25,296.438h9.562v19.125h-9.562V296.438z
		 M290.812,286.875h-9.562V267.75h9.562V286.875z M309.938,229.5v28.688h-9.562V229.5H309.938z M290.812,229.5v28.688h-9.562V229.5
		H290.812z M262.125,229.5h9.562v28.688h-9.562V229.5z"/>
	<path d="M160.915,598.106c0-14.975,5.996-26.641,15.147-34.941c2.897-2.63,6.11-4.915,9.562-6.847
		c1.061-0.593,2.132-1.157,3.232-1.693h-3.232V535.5h19.125v13.952c4.236-0.803,8.549-1.253,12.862-1.253
		c2.113,0,4.198,0.153,6.263,0.383V401.625h-114.75V612h52.957l-0.096-0.679C161.25,607.295,160.915,601.472,160.915,598.106z
		 M128.25,506.812h19.125v19.125H128.25V506.812z M128.25,478.125h19.125v19.125H128.25V478.125z M128.25,449.438h19.125v19.125
		H128.25V449.438z M176.062,468.562h-19.125v-19.125h19.125V468.562z M176.062,497.25h-19.125v-19.125h19.125V497.25z
		 M156.938,506.812h19.125v19.125h-19.125V506.812z M204.75,525.938h-19.125v-19.125h19.125V525.938z M204.75,497.25h-19.125
		v-19.125h19.125V497.25z M204.75,468.562h-19.125v-19.125h19.125V468.562z M204.75,439.875h-19.125V420.75h19.125V439.875z
		 M176.062,439.875h-19.125V420.75h19.125V439.875z M128.25,420.75h19.125v19.125H128.25V420.75z M128.25,535.5h19.125v19.125
		H128.25V535.5z M156.938,535.5h19.125v19.125h-19.125V535.5z"/>
	<path d="M369.856,609.208l0.096,2.792h40.755l-0.096-0.679c-0.736-4.026-1.071-9.849-1.071-13.215
		c0-23.925,14.038-44.58,34.272-54.325V344.25h-95.625v220.693C360.82,575.663,369.12,591.546,369.856,609.208z M424.688,487.688
		h-9.562v-9.562h9.562V487.688z M386.438,478.125h19.125v9.562h-19.125V478.125z M386.438,449.438h19.125v19.125h-19.125V449.438z
		 M386.438,420.75h19.125v19.125h-19.125V420.75z M386.438,392.062h19.125v19.125h-19.125V392.062z M424.688,411.188h-9.562v-19.125
		h9.562V411.188z M424.688,439.875h-9.562V420.75h9.562V439.875z M424.688,468.562h-9.562v-19.125h9.562V468.562z M424.688,382.5
		h-9.562v-19.125h9.562V382.5z M405.562,382.5h-19.125v-19.125h19.125V382.5z M367.312,363.375h9.562V382.5h-9.562V363.375z
		 M367.312,392.062h9.562v19.125h-9.562V392.062z M367.312,420.75h9.562v19.125h-9.562V420.75z M367.312,449.438h9.562v19.125
		h-9.562V449.438z M367.312,478.125h9.562v9.562h-9.562V478.125z M367.312,497.25h9.562h9.562h19.125h9.562h9.562v9.562h-57.375
		V497.25z M367.312,516.375h57.375v9.562h-57.375V516.375z M367.312,535.5h57.375v9.562h-57.375V535.5z"/>
	<path d="M539.438,435.046c2.677,4.638,5.891,8.922,9.562,12.766c5.776,6.053,12.661,10.997,20.339,14.554
		c5.594,2.591,11.609,4.418,17.911,5.384v4.829v4.829v91.14c0.937,1.033,1.893,2.037,2.764,3.136
		c2.066-2.477,4.38-4.676,6.799-6.732v-86.818v-4.781v-4.781V420.75h-9.562h-3.586c-11.398,0-15.539-9.907-15.539-16.562V382.5
		c0-2.639,2.142-4.781,4.781-4.781s4.781,2.142,4.781,4.781v21.688c0.029,1.616,0.536,7,5.977,7h3.586h9.562V382.5
		c0-0.66,0.134-1.291,0.373-1.865c0.727-1.712,2.419-2.917,4.408-2.917c2.639,0,4.781,2.142,4.781,4.781v57.375h9.562h1.693
		c2.123,0,3.672-0.602,4.858-1.893c3.06-3.337,3.223-10.356,3.031-12.556l-0.019-23.801c0-2.639,2.142-4.781,4.781-4.781
		s4.781,2.142,4.781,4.781v23.39c0.096,0.889,0.87,12.46-5.537,19.441c-3.003,3.261-7.115,4.982-11.896,4.982h-1.693h-9.562v18.513
		v4.829v4.829v80.765c3.05-1.673,6.235-3.117,9.562-4.227V475.83v-4.934v-4.925c28.018-8.033,48.549-33.784,48.549-64.384
		c0-37.016-30.007-67.024-67.024-67.024s-67.024,30.007-67.024,67.024c0,0.354,0.048,0.689,0.048,1.042
		C530.669,414.429,533.91,425.474,539.438,435.046z"/>
	<path d="M348.188,612h12.116c-0.488-12.517-5.059-23.524-12.116-32.13c-2.831-3.452-5.967-6.579-9.562-9.132
		c-7.994-5.68-17.624-9.027-28.085-9.027c-20.588,0-38.25,10.079-45.9,27.865c-5.565-13.799-16.993-24.566-31.202-29.252
		c-3.06-1.014-6.273-1.673-9.562-2.085c-2.056-0.258-4.131-0.478-6.263-0.478c-10.94,0-22.864,3.777-31.987,11.121
		c-1.826,1.473-3.519,3.108-5.087,4.867c-6.091,6.818-10.06,15.74-10.06,26.746c0,3.117,0.383,1.941,0.918,11.504h52.479h9.562
		h105.188H348.188z"/>
	<path d="M635.665,561.72c-7.028,0-13.665,1.262-19.727,3.509c-3.404,1.262-6.598,2.869-9.562,4.791
		c-3.567,2.324-6.799,5.068-9.562,8.3c-2.831,3.309-5.24,7.048-7.048,11.255c-0.717-1.769-1.616-3.443-2.515-5.106
		c-8.578-15.864-25.216-26.708-44.513-26.708c-4.485,0-8.75,0.775-12.862,1.903c-3.337,0.908-6.531,2.104-9.562,3.653
		c-3.175,1.616-6.235,3.433-9.008,5.642c-0.172-0.239-0.383-0.459-0.555-0.698c-2.725-3.72-5.957-7.028-9.562-9.888
		c-8.625-6.847-19.46-11.016-31.327-11.016c-9.534,0-18.427,2.955-26.048,7.899c-14.784,9.582-24.71,26.756-24.71,45.25
		c0,3.117,0.383,1.941,0.918,11.504h23.792h147.167h15.396h5.833h73.22C684.319,583.312,662.555,561.72,635.665,561.72z"/>
</g>
</svg>
