<?xml version="1.0" encoding="utf-8"?>
<!-- Generator: Adobe Illustrator 16.0.0, SVG Export Plug-In . SVG Version: 6.00 Build 0)  -->
<!DOCTYPE svg PUBLIC "-//W3C//DTD SVG 1.1//EN" "http://www.w3.org/Graphics/SVG/1.1/DTD/svg11.dtd">
<svg version="1.1" id="Layer_1" xmlns="http://www.w3.org/2000/svg" xmlns:xlink="http://www.w3.org/1999/xlink" x="0px" y="0px"
	 width="50px" height="50px" viewBox="0 0 50 50" enable-background="new 0 0 50 50" xml:space="preserve">
<g>
	<path d="M37.269,14.215h-3.346l-8.035-6.837c0.045-0.111,0.072-0.233,0.072-0.36c0-0.529-0.43-0.96-0.96-0.96
		c-0.531,0-0.961,0.431-0.961,0.96c0,0.127,0.027,0.249,0.072,0.36l-8.034,6.837h-3.346c-1.432,0-2.595,1.164-2.595,2.595v24.538
		c0,1.432,1.163,2.595,2.595,2.595h21.606l5.525-5.525V16.81C39.863,15.379,38.698,14.215,37.269,14.215z M34.732,17.538
		c0,0.771-0.626,1.396-1.396,1.396c-0.771,0-1.396-0.625-1.396-1.396s0.625-1.396,1.396-1.396
		C34.106,16.142,34.732,16.768,34.732,17.538z M24.514,7.825C24.658,7.913,24.818,7.979,25,7.979s0.342-0.065,0.488-0.153
		l7.508,6.39H17.004L24.514,7.825z M30.564,17.538c0,0.771-0.625,1.396-1.398,1.396c-0.77,0-1.394-0.625-1.394-1.396
		s0.624-1.396,1.394-1.396C29.939,16.142,30.564,16.768,30.564,17.538z M26.396,17.538c0,0.771-0.626,1.396-1.396,1.396
		c-0.771,0-1.396-0.625-1.396-1.396s0.626-1.396,1.396-1.396C25.77,16.142,26.396,16.768,26.396,17.538z M22.227,17.538
		c0,0.771-0.623,1.396-1.393,1.396c-0.774,0-1.399-0.625-1.399-1.396s0.625-1.396,1.399-1.396
		C21.604,16.142,22.227,16.768,22.227,17.538z M16.664,16.142c0.771,0,1.396,0.626,1.396,1.396s-0.625,1.396-1.396,1.396
		c-0.771,0-1.396-0.625-1.396-1.396S15.894,16.142,16.664,16.142z M38.448,37.831l-0.293,0.292h-2.224
		c-1.038,0-1.887,0.851-1.887,1.888v2.224l-0.293,0.293H12.731c-0.651,0-1.18-0.529-1.18-1.18V20.585h26.896V37.831z"/>
	<path d="M13.829,33.313c0.127,0.245,0.311,0.436,0.551,0.574c0.24,0.137,0.563,0.206,0.967,0.206c0.355,0,0.644-0.058,0.866-0.172
		c0.223-0.115,0.395-0.271,0.518-0.469c0.123-0.198,0.206-0.426,0.251-0.687c0.045-0.26,0.067-0.535,0.067-0.825h-1.08
		c0,0.29-0.018,0.524-0.053,0.701c-0.035,0.177-0.083,0.315-0.142,0.413c-0.06,0.097-0.131,0.163-0.214,0.195
		c-0.083,0.033-0.171,0.049-0.266,0.049c-0.115,0-0.216-0.024-0.304-0.071c-0.087-0.047-0.16-0.14-0.217-0.277
		c-0.058-0.138-0.1-0.332-0.127-0.582s-0.042-0.577-0.042-0.982c0-0.38,0.01-0.701,0.03-0.964c0.02-0.262,0.055-0.475,0.105-0.637
		c0.05-0.163,0.119-0.28,0.206-0.353c0.087-0.073,0.199-0.109,0.334-0.109c0.245,0,0.414,0.089,0.506,0.266
		c0.092,0.178,0.139,0.461,0.139,0.852h1.08c0-0.195-0.014-0.404-0.042-0.626c-0.027-0.222-0.096-0.43-0.206-0.623
		c-0.11-0.192-0.276-0.351-0.499-0.476c-0.222-0.125-0.526-0.188-0.911-0.188c-0.405,0-0.728,0.069-0.967,0.206
		c-0.24,0.138-0.424,0.329-0.551,0.574c-0.127,0.245-0.21,0.539-0.248,0.881c-0.038,0.343-0.056,0.716-0.056,1.121
		c0,0.405,0.019,0.779,0.056,1.122S13.702,33.067,13.829,33.313z"/>
	<polygon points="20.658,33.103 18.745,33.103 18.745,28.632 17.665,28.632 17.665,33.987 20.658,33.987 	"/>
	<path d="M21.329,33.313c0.127,0.245,0.311,0.436,0.551,0.574c0.24,0.137,0.563,0.206,0.967,0.206c0.405,0,0.728-0.069,0.968-0.206
		c0.24-0.138,0.423-0.329,0.551-0.574c0.128-0.245,0.21-0.539,0.248-0.881c0.038-0.342,0.057-0.716,0.057-1.122
		c0-0.405-0.019-0.778-0.057-1.121c-0.037-0.342-0.12-0.636-0.248-0.881c-0.127-0.245-0.311-0.436-0.551-0.574
		c-0.24-0.137-0.563-0.206-0.968-0.206c-0.405,0-0.728,0.069-0.967,0.206c-0.24,0.138-0.424,0.329-0.551,0.574
		c-0.127,0.245-0.21,0.539-0.248,0.881c-0.038,0.343-0.056,0.716-0.056,1.121c0,0.405,0.019,0.779,0.056,1.122
		S21.202,33.067,21.329,33.313z M22.131,30.395c0.018-0.25,0.053-0.455,0.105-0.615c0.053-0.16,0.127-0.276,0.225-0.349
		c0.098-0.073,0.226-0.109,0.386-0.109s0.289,0.036,0.386,0.109c0.098,0.072,0.172,0.188,0.225,0.349
		c0.052,0.16,0.087,0.365,0.105,0.615s0.026,0.555,0.026,0.915c0,0.36-0.009,0.667-0.026,0.919s-0.053,0.458-0.105,0.615
		c-0.053,0.157-0.127,0.272-0.225,0.345c-0.098,0.073-0.226,0.109-0.386,0.109s-0.289-0.036-0.386-0.109
		c-0.098-0.072-0.172-0.188-0.225-0.345c-0.052-0.158-0.087-0.363-0.105-0.615s-0.026-0.559-0.026-0.919
		C22.105,30.95,22.114,30.645,22.131,30.395z"/>
	<path d="M26.8,34.092c0.585,0,1.041-0.132,1.369-0.397c0.327-0.265,0.491-0.68,0.491-1.245c0-0.165-0.015-0.315-0.045-0.45
		c-0.03-0.135-0.084-0.259-0.161-0.372c-0.078-0.112-0.183-0.217-0.315-0.315c-0.132-0.098-0.299-0.191-0.499-0.281l-0.833-0.36
		c-0.23-0.095-0.38-0.199-0.45-0.312c-0.07-0.112-0.105-0.251-0.105-0.416c0-0.08,0.009-0.158,0.026-0.232
		c0.018-0.075,0.05-0.141,0.098-0.199c0.047-0.058,0.111-0.104,0.191-0.139c0.08-0.035,0.18-0.053,0.3-0.053
		c0.21,0,0.36,0.069,0.45,0.206c0.09,0.138,0.135,0.334,0.135,0.589h1.035v-0.15c0-0.255-0.042-0.474-0.124-0.656
		s-0.197-0.333-0.345-0.45c-0.148-0.117-0.323-0.202-0.525-0.255c-0.202-0.052-0.423-0.079-0.664-0.079
		c-0.515,0-0.92,0.13-1.215,0.39c-0.295,0.26-0.442,0.655-0.442,1.185c0,0.22,0.027,0.414,0.082,0.581
		c0.055,0.167,0.142,0.315,0.259,0.442c0.118,0.127,0.264,0.239,0.439,0.334c0.175,0.095,0.382,0.183,0.623,0.262
		c0.18,0.06,0.331,0.119,0.454,0.176c0.123,0.058,0.221,0.122,0.296,0.191c0.075,0.07,0.128,0.149,0.161,0.236
		s0.049,0.191,0.049,0.311c0,0.225-0.066,0.392-0.199,0.499c-0.133,0.107-0.281,0.161-0.446,0.161c-0.145,0-0.263-0.02-0.353-0.06
		s-0.163-0.095-0.217-0.165c-0.055-0.07-0.093-0.156-0.113-0.259s-0.03-0.216-0.03-0.341v-0.157h-1.08v0.217
		c0,0.495,0.131,0.879,0.394,1.151C25.754,33.956,26.19,34.092,26.8,34.092z"/>
	<polygon points="32.268,33.103 30.28,33.103 30.28,31.662 32.08,31.662 32.08,30.777 30.28,30.777 30.28,29.517 32.193,29.517 
		32.193,28.632 29.2,28.632 29.2,33.987 32.268,33.987 	"/>
	<path d="M35.455,33.822c0.235-0.11,0.422-0.277,0.563-0.502s0.239-0.51,0.296-0.855c0.057-0.345,0.086-0.755,0.086-1.23
		c0-0.395-0.022-0.752-0.067-1.073c-0.045-0.32-0.131-0.593-0.259-0.821c-0.127-0.227-0.306-0.402-0.536-0.525
		s-0.533-0.184-0.908-0.184h-1.77v5.355h1.702C34.923,33.987,35.22,33.932,35.455,33.822z M33.94,33.192v-3.765h0.458
		c0.205,0,0.369,0.039,0.491,0.116c0.123,0.078,0.215,0.194,0.278,0.349c0.063,0.155,0.104,0.347,0.124,0.574
		c0.02,0.228,0.03,0.494,0.03,0.799c0,0.365-0.011,0.67-0.034,0.915c-0.022,0.245-0.067,0.442-0.135,0.593
		c-0.067,0.15-0.16,0.257-0.277,0.322c-0.118,0.065-0.269,0.098-0.454,0.098H33.94z"/>
</g>
</svg>
