<?xml version="1.0" encoding="utf-8"?>
<!-- Generator: Adobe Illustrator 16.0.0, SVG Export Plug-In . SVG Version: 6.00 Build 0)  -->
<!DOCTYPE svg PUBLIC "-//W3C//DTD SVG 1.1//EN" "http://www.w3.org/Graphics/SVG/1.1/DTD/svg11.dtd">
<svg version="1.1" id="Layer_1" xmlns="http://www.w3.org/2000/svg" xmlns:xlink="http://www.w3.org/1999/xlink" x="0px" y="0px"
	 width="126px" height="126px" viewBox="0 0 126 126" enable-background="new 0 0 126 126" xml:space="preserve">
<g>
	<path d="M99.148,38.152H76.419l-5.326,5.326h24.76l8.155,16.35H21.992l8.155-16.35H52.3l-5.326-5.326H26.852L15.024,61.864v62.423
		h95.951V61.864L99.148,38.152z M105.65,118.961h-85.3V65.154h85.3V118.961z"/>
	<path d="M60.483,49.001H50.14l-1.065,3.195h28.027l-1.132-3.195H63.354L90.93,21.427c0.685-0.685,0.685-1.793,0-2.478L74.207,2.226
		c-0.684-0.684-1.794-0.684-2.478,0L43.957,29.999c-0.685,0.684-0.685,1.793,0,2.477L60.483,49.001z M70.542,8.368l-4.107,16.429
		l-16.356,4.034L70.542,8.368z M68.298,27.946c0.316-0.077,0.597-0.239,0.82-0.462c0.22-0.221,0.381-0.5,0.459-0.814l4.824-19.294
		l12.813,12.813L61.918,45.481L49.114,32.678L68.298,27.946z"/>
	<path d="M47.046,115.651c0.479,0.479,1.256,0.479,1.735,0L68.232,96.2c0.479-0.479,0.479-1.255,0-1.735L56.521,82.753
		c-0.479-0.479-1.256-0.479-1.735,0l-19.452,19.451c-0.479,0.479-0.479,1.256,0,1.735L47.046,115.651z M53.953,87.055l-2.876,11.506
		l-11.455,2.826L53.953,87.055z M52.381,100.767c0.222-0.054,0.418-0.168,0.575-0.323c0.154-0.155,0.267-0.35,0.322-0.57
		l3.377-13.513l8.974,8.973l-17.716,17.716l-8.967-8.968L52.381,100.767z"/>
	<path d="M78.365,100.492c0.417,0.533,1.187,0.628,1.722,0.212L93.149,90.52c0.533-0.416,0.628-1.188,0.212-1.722L76.446,67.104
		c-0.416-0.533-1.187-0.629-1.722-0.213L61.662,77.077c-0.533,0.416-0.628,1.187-0.212,1.722L78.365,100.492z M89.194,87.443
		l-11.066-4.268L76.732,71.46L89.194,87.443z M74.141,70.459l1.64,13.74c0.026,0.226,0.114,0.437,0.25,0.609s0.315,0.31,0.526,0.391
		l12.996,5.012l-10.008,7.805L64.139,78.258L74.141,70.459z"/>
</g>
</svg>
