<?xml version="1.0" encoding="iso-8859-1"?>
<!-- Generator: Adobe Illustrator 17.0.0, SVG Export Plug-In . SVG Version: 6.00 Build 0)  -->
<!DOCTYPE svg PUBLIC "-//W3C//DTD SVG 1.1//EN" "http://www.w3.org/Graphics/SVG/1.1/DTD/svg11.dtd">
<svg version="1.1" id="Capa_1" xmlns="http://www.w3.org/2000/svg" xmlns:xlink="http://www.w3.org/1999/xlink" x="0px" y="0px"
	 width="64px" height="64px" viewBox="0 0 64 64" style="enable-background:new 0 0 64 64;" xml:space="preserve">
<g>
	<path d="M52.536,5.464c-0.586-0.586-1.574-0.547-2.208,0.087L37.085,18.793c-0.301-1.348-0.55-3.152-0.825-5.627
		C34.927,1.167,31,0.833,31,0.833s-3.792,0.333-5.125,12.333c-0.229,2.063-0.439,3.656-0.674,4.913L12.672,5.55
		c-0.634-0.634-1.622-0.673-2.208-0.087C9.878,6.049,9.917,7.038,10.55,7.672l13.626,13.626c-1.316,2.175-3.703,1.602-9.384,3.786
		c0,0-1.197,2.917,0.031,5c0,0,5.825,1.07,8.617,2.354L10.55,45.328c-0.634,0.634-0.673,1.622-0.087,2.208
		c0.586,0.586,1.574,0.547,2.208-0.087L25.65,34.472c0.22,0.113,0.492,0.195,0.843,0.195l2.837,19.583l-6.915,1.333L21.749,54
		c0,0-1,5.75,0.084,7.583l1.667,1.833l0.75-1.667l-0.833-1.5l6.458,1.25c0,0,0.125,1.5,1.125,1.5s1.26-1.5,1.26-1.5l6.593-1.25
		l-0.833,1.5l0.75,1.667l1.667-1.833C41.52,59.75,40.52,54,40.52,54l-0.667,1.583l-6.917-1.333l2.833-19.583
		c0.633,0,1.029-0.256,1.267-0.509L50.328,47.45c0.634,0.634,1.622,0.673,2.208,0.087c0.586-0.586,0.547-1.574-0.087-2.208
		L39.333,32.211c2.931-1.182,8.08-2.128,8.08-2.128c1.228-2.083-0.002-5-0.002-5c-5.209-2.002-7.669-1.69-9.072-3.3L52.45,7.672
		C53.083,7.038,53.122,6.049,52.536,5.464z"/>
</g>
</svg>
