<?xml version="1.0" encoding="iso-8859-1"?>
<!-- Generator: Adobe Illustrator 16.0.0, SVG Export Plug-In . SVG Version: 6.00 Build 0)  -->
<!DOCTYPE svg PUBLIC "-//W3C//DTD SVG 1.1//EN" "http://www.w3.org/Graphics/SVG/1.1/DTD/svg11.dtd">
<svg version="1.1" xmlns="http://www.w3.org/2000/svg" xmlns:xlink="http://www.w3.org/1999/xlink" x="0px" y="0px"
	 width="26.391px" height="23.383px" viewBox="0 0 26.391 23.383" style="enable-background:new 0 0 26.391 23.383;"
	 xml:space="preserve">
<g id="c14_house">
	<path style="fill:#000000;" d="M3.588,22.793c0,0-0.024,0.59,0.553,0.59c0.718,0,6.652-0.008,6.652-0.008l0.01-5.451
		c0,0-0.094-0.898,0.777-0.898h2.761c1.031,0,0.968,0.898,0.968,0.898l-0.012,5.434c0,0,5.628,0,6.512,0
		c0.732,0,0.699-0.734,0.699-0.734V12.572L13.33,4.409l-9.742,8.164V22.793z"/>
	<path style="fill:#000000;" d="M0,11.813c0,0,0.826,1.524,2.631,0l10.781-9.121l10.107,9.064c2.088,1.506,2.871,0,2.871,0L13.412,0
		L0,11.813z"/>
	<polygon style="fill:#000000;" points="23.273,2.671 20.674,2.671 20.685,5.824 23.273,8.021 	"/>
</g>
<g id="Capa_1">
</g>
</svg>
