<?xml version="1.0" encoding="utf-8"?>
<!-- Generator: Adobe Illustrator 16.0.4, SVG Export Plug-In . SVG Version: 6.00 Build 0)  -->
<!DOCTYPE svg PUBLIC "-//W3C//DTD SVG 1.1//EN" "http://www.w3.org/Graphics/SVG/1.1/DTD/svg11.dtd">
<svg version="1.1" id="Layer_1" xmlns="http://www.w3.org/2000/svg" xmlns:xlink="http://www.w3.org/1999/xlink" x="0px" y="0px"
	 width="24px" height="24px" viewBox="0 0 24 24" enable-background="new 0 0 24 24" xml:space="preserve">
<path d="M1.2,6.1C2,3.9,5.5,2.4,7.1,3.2L2.5,8.8C2.5,8.8,0.5,7.9,1.2,6.1z M11.949,12.684c-0.089-0.267-0.295-0.466-0.548-0.581
	V12.1l-0.015-0.006c-0.025-0.011-0.042-0.034-0.069-0.042l-0.137-0.045L7.9,10.6l3.179-3.853l6.604,2.202
	C17.789,8.984,17.896,9,18,9c0.419,0,0.809-0.265,0.948-0.684c0.175-0.524-0.108-1.09-0.632-1.265l-6.31-2.103
	C13.145,4.714,14,3.707,14,2.5C14,1.119,12.881,0,11.5,0S9,1.119,9,2.5c0,0.64,0.248,1.218,0.644,1.66L9.316,4.051
	C9.294,4.044,9.272,4.049,9.25,4.043C9.187,4.017,9.134,4,9.1,4C9.055,4,9.011,4.006,8.966,4.008
	C8.938,4.009,8.911,4.009,8.884,4.013C8.458,4.041,8.042,4.158,7.7,4.5c-0.5,0.6-0.9,1-1.5,1.7C5.1,7.5,4.5,8.3,4,8.9
	c-0.2,0.3-0.9,1.4-0.4,2.3C4.1,12,4.9,12.4,6,12.7c0.781,0.26,2.912,0.942,4.309,1.388l1.743,5.229C12.191,19.734,12.581,20,13,20
	c0.104,0,0.211-0.018,0.316-0.052c0.522-0.175,0.807-0.74,0.632-1.265L11.949,12.684z M24,15.5c0,2.5-2,4.5-4.5,4.5S15,18,15,15.5
	s2-4.5,4.5-4.5S24,13,24,15.5z M22.5,15.5c0-1.7-1.3-3-3-3s-3,1.3-3,3s1.3,3,3,3S22.5,17.2,22.5,15.5z M9,19.5C9,22,7,24,4.5,24
	S0,22,0,19.5S2,15,4.5,15S9,17,9,19.5z M7.5,19.5c0-1.7-1.3-3-3-3s-3,1.3-3,3s1.3,3,3,3S7.5,21.2,7.5,19.5z"/>
</svg>
