<?xml version="1.0" encoding="utf-8"?>
<!-- Generator: Adobe Illustrator 16.0.0, SVG Export Plug-In . SVG Version: 6.00 Build 0)  -->
<!DOCTYPE svg PUBLIC "-//W3C//DTD SVG 1.1//EN" "http://www.w3.org/Graphics/SVG/1.1/DTD/svg11.dtd">
<svg version="1.1" id="Layer_1" xmlns="http://www.w3.org/2000/svg" xmlns:xlink="http://www.w3.org/1999/xlink" x="0px" y="0px"
	 width="50px" height="50px" viewBox="0 0 50 50" enable-background="new 0 0 50 50" xml:space="preserve">
<g>
	<path d="M37.269,14.215h-3.346l-8.035-6.837c0.045-0.111,0.072-0.233,0.072-0.36c0-0.529-0.43-0.96-0.96-0.96
		c-0.531,0-0.961,0.431-0.961,0.96c0,0.127,0.027,0.249,0.072,0.36l-8.034,6.837h-3.346c-1.432,0-2.595,1.164-2.595,2.595v24.538
		c0,1.432,1.163,2.595,2.595,2.595h21.606l5.525-5.525V16.81C39.863,15.379,38.698,14.215,37.269,14.215z M34.732,17.538
		c0,0.771-0.626,1.396-1.396,1.396c-0.771,0-1.396-0.625-1.396-1.396s0.625-1.396,1.396-1.396
		C34.106,16.142,34.732,16.768,34.732,17.538z M24.514,7.825C24.658,7.913,24.818,7.979,25,7.979s0.342-0.065,0.488-0.153
		l7.508,6.39H17.004L24.514,7.825z M30.564,17.538c0,0.771-0.625,1.396-1.398,1.396c-0.77,0-1.394-0.625-1.394-1.396
		s0.624-1.396,1.394-1.396C29.939,16.142,30.564,16.768,30.564,17.538z M26.396,17.538c0,0.771-0.626,1.396-1.396,1.396
		c-0.771,0-1.396-0.625-1.396-1.396s0.626-1.396,1.396-1.396C25.77,16.142,26.396,16.768,26.396,17.538z M22.227,17.538
		c0,0.771-0.623,1.396-1.393,1.396c-0.774,0-1.399-0.625-1.399-1.396s0.625-1.396,1.399-1.396
		C21.604,16.142,22.227,16.768,22.227,17.538z M16.664,16.142c0.771,0,1.396,0.626,1.396,1.396s-0.625,1.396-1.396,1.396
		c-0.771,0-1.396-0.625-1.396-1.396S15.894,16.142,16.664,16.142z M38.448,37.831l-0.293,0.292h-2.224
		c-1.038,0-1.887,0.851-1.887,1.888v2.224l-0.293,0.293H12.731c-0.651,0-1.18-0.529-1.18-1.18V20.585h26.896V37.831z"/>
	<path d="M15.105,34.087c0.17,0.327,0.415,0.582,0.735,0.765c0.32,0.183,0.75,0.275,1.29,0.275c0.54,0,0.97-0.092,1.29-0.275
		c0.32-0.184,0.565-0.438,0.735-0.765c0.17-0.327,0.28-0.718,0.33-1.175c0.05-0.457,0.075-0.955,0.075-1.495
		s-0.025-1.039-0.075-1.495c-0.05-0.457-0.16-0.848-0.33-1.175c-0.17-0.326-0.415-0.582-0.735-0.765
		c-0.32-0.184-0.75-0.275-1.29-0.275c-0.54,0-0.97,0.091-1.29,0.275c-0.32,0.183-0.565,0.438-0.735,0.765
		c-0.17,0.327-0.28,0.719-0.33,1.175c-0.05,0.457-0.075,0.955-0.075,1.495s0.025,1.038,0.075,1.495
		C14.825,33.369,14.935,33.761,15.105,34.087z M16.175,30.197c0.023-0.333,0.07-0.606,0.14-0.82c0.07-0.213,0.17-0.369,0.3-0.465
		c0.13-0.096,0.301-0.145,0.515-0.145s0.385,0.049,0.515,0.145c0.13,0.097,0.23,0.252,0.3,0.465c0.07,0.213,0.116,0.487,0.14,0.82
		c0.023,0.333,0.035,0.74,0.035,1.22s-0.012,0.888-0.035,1.225c-0.023,0.337-0.07,0.61-0.14,0.82c-0.07,0.21-0.17,0.363-0.3,0.46
		s-0.302,0.145-0.515,0.145s-0.385-0.048-0.515-0.145c-0.13-0.097-0.23-0.25-0.3-0.46c-0.07-0.21-0.117-0.483-0.14-0.82
		c-0.023-0.336-0.035-0.745-0.035-1.225S16.152,30.531,16.175,30.197z"/>
	<path d="M21.85,32.137h0.77c0.34,0,0.65-0.043,0.93-0.13c0.28-0.086,0.518-0.217,0.715-0.39s0.35-0.395,0.46-0.665
		s0.165-0.591,0.165-0.965c0-0.267-0.033-0.528-0.1-0.785c-0.066-0.256-0.177-0.485-0.33-0.685c-0.153-0.2-0.355-0.361-0.605-0.485
		c-0.25-0.123-0.558-0.185-0.925-0.185h-2.52v7.14h1.44V32.137z M21.85,28.907h0.6c0.36,0,0.617,0.094,0.77,0.28
		s0.23,0.46,0.23,0.82c0,0.367-0.088,0.637-0.265,0.81s-0.408,0.26-0.695,0.26h-0.64V28.907z"/>
	<polygon points="29.69,33.807 27.04,33.807 27.04,31.887 29.44,31.887 29.44,30.708 27.04,30.708 27.04,29.027 29.59,29.027 
		29.59,27.847 25.6,27.847 25.6,34.987 29.69,34.987 	"/>
	<polygon points="31.73,29.987 31.75,29.987 33.51,34.987 35.15,34.987 35.15,27.847 33.83,27.847 33.83,32.737 33.81,32.737 
		32.07,27.847 30.41,27.847 30.41,34.987 31.73,34.987 	"/>
</g>
</svg>
