<?xml version="1.0" encoding="utf-8"?>
<!-- Generator: Adobe Illustrator 16.0.0, SVG Export Plug-In . SVG Version: 6.00 Build 0)  -->
<!DOCTYPE svg PUBLIC "-//W3C//DTD SVG 1.1//EN" "http://www.w3.org/Graphics/SVG/1.1/DTD/svg11.dtd">
<svg version="1.1" id="Layer_1" xmlns="http://www.w3.org/2000/svg" xmlns:xlink="http://www.w3.org/1999/xlink" x="0px" y="0px"
	 width="50px" height="50px" viewBox="0 0 50 50" enable-background="new 0 0 50 50" xml:space="preserve">
<path d="M46.461,19.203c-0.033-0.038-0.061-0.075-0.1-0.112l-1.717-1.657c1.424-0.323,2.957-1.516,2.957-2.74
	c0-1.426-1.978-1.932-3.668-1.932c-1.765,0-1.97,1.21-1.992,2.065l-4.43-4.271c-0.9-0.891-2.606-1.592-3.882-1.592H25h-0.002h-8.63
	c-1.275,0-2.981,0.701-3.882,1.592l-4.429,4.271c-0.023-0.855-0.228-2.065-1.992-2.065c-1.691,0-3.669,0.506-3.669,1.932
	c0,1.224,1.534,2.417,2.958,2.74l-1.717,1.657c-0.039,0.037-0.066,0.074-0.1,0.112C1.7,20.774,0.5,23.685,0.5,25.799v6.279
	c0,1.525,0.601,2.908,1.572,3.939v2.434c0,1.424,1.192,2.585,2.658,2.585h3.214c1.466,0,2.657-1.159,2.657-2.585v-0.623h14.397H25
	h14.396v0.623c0,1.426,1.191,2.585,2.658,2.585h3.213c1.467,0,2.658-1.161,2.658-2.585v-2.434c0.971-1.031,1.572-2.414,1.572-3.939
	v-6.279C49.498,23.685,48.298,20.774,46.461,19.203z M14.113,12.454c0.623-0.519,1.712-0.913,2.255-0.913h8.63H25h8.63
	c0.543,0,1.632,0.394,2.255,0.913l5.809,5.63H25h-0.002H8.305L14.113,12.454z M2.493,24.848c0-1.546,1.21-2.801,2.704-2.801
	c1.493,0,6.372,2.864,6.372,4.41s-4.879,1.189-6.372,1.189C3.703,27.646,2.493,26.395,2.493,24.848z M10.602,35.074h-0.515H9.572
	l-3.055,0.005c-0.848-0.263-1.446-0.572-1.869-0.903c-0.214-0.167-0.378-0.341-0.506-0.514c-0.129-0.174-0.223-0.346-0.284-0.518
	c-0.38-1.074,0.405-2.061,0.405-2.061h5.214l3.476,3.99H10.602z M32.496,35.076H25h-0.002h-7.496c-1.563,0-2.832-1.268-2.832-2.831
	h10.328H25h10.328C35.328,33.809,34.059,35.076,32.496,35.076z M33.154,30.314H25h-0.002h-8.154c-1.7,0-3.08-2.096-3.08-4.681
	h11.234H25h11.234C36.234,28.219,34.854,30.314,33.154,30.314z M46.141,33.145c-0.062,0.172-0.156,0.344-0.285,0.518
	c-0.127,0.173-0.291,0.347-0.506,0.514c-0.422,0.331-1.021,0.641-1.869,0.903l-3.055-0.005h-0.515h-0.515h-2.352l3.477-3.99h5.213
	C45.734,31.084,46.52,32.07,46.141,33.145z M44.801,27.646c-1.492,0-6.371,0.356-6.371-1.189s4.879-4.41,6.371-4.41
	c1.494,0,2.704,1.255,2.704,2.801S46.295,27.646,44.801,27.646z"/>
</svg>
