<?xml version="1.0" encoding="iso-8859-1"?>
<!-- Generator: Adobe Illustrator 16.0.0, SVG Export Plug-In . SVG Version: 6.00 Build 0)  -->
<!DOCTYPE svg PUBLIC "-//W3C//DTD SVG 1.1//EN" "http://www.w3.org/Graphics/SVG/1.1/DTD/svg11.dtd">
<svg version="1.1" id="Layer_1" xmlns="http://www.w3.org/2000/svg" xmlns:xlink="http://www.w3.org/1999/xlink" x="0px" y="0px"
	 width="24.125px" height="31.421px" viewBox="0 0 24.125 31.421" style="enable-background:new 0 0 24.125 31.421;"
	 xml:space="preserve">
<g>
	<circle cx="8.83" cy="4.021" r="4.021"/>
	<polygon points="11.474,18.172 9.192,22.962 8.894,23.588 4.834,23.588 2.015,12.313 0,12.816 3.212,25.666 4.837,25.666 
		2.752,30.258 4.012,30.829 6.357,25.666 9.796,25.666 12.05,30.821 13.319,30.268 11.309,25.666 12.769,25.666 12.769,23.588 
		10.229,23.588 10.529,22.962 11.416,21.096 12.684,18.438 23.453,18.438 23.453,17.231 11.922,17.231 	"/>
	<path d="M10.413,9.291H5.84L5.162,22.962h2.311h0.952l2.872-6.028l0.177-0.372l0.253-3.347l2.959,1.937L12.107,15l0.012,1.219
		l2.751,0.369l-0.012-1.323l0.262,0.171v1.186h8.246L24.125,8.6l-0.749,0.153l-6.418,1.119l-0.439,4.711L10.413,9.291z
		 M12.815,15.875v-0.283l1.121,0.084l0.012,0.33L12.815,15.875z M19.16,16.039h-0.583v-0.328h0.583V16.039z M19.968,16.039h-0.583
		v-0.328h0.583V16.039z M22.362,16.039h-2.139v-0.328h2.139V16.039z M17.306,10.559l6.004-1.053l-0.465,5.677H17.21l-0.286-0.248
		L17.306,10.559z"/>
	<polygon points="14.898,20.147 12.636,20.147 11.296,22.962 11.474,22.962 14.898,22.962 14.898,31.421 18.518,31.421 
		18.518,20.147 18.228,20.147 	"/>
</g>
<g>
</g>
<g>
</g>
<g>
</g>
<g>
</g>
<g>
</g>
<g>
</g>
<g>
</g>
<g>
</g>
<g>
</g>
<g>
</g>
<g>
</g>
<g>
</g>
<g>
</g>
<g>
</g>
<g>
</g>
</svg>
