<?xml version="1.0" encoding="utf-8"?>
<!-- Generator: Adobe Illustrator 17.0.0, SVG Export Plug-In . SVG Version: 6.00 Build 0)  -->
<!DOCTYPE svg PUBLIC "-//W3C//DTD SVG 1.1//EN" "http://www.w3.org/Graphics/SVG/1.1/DTD/svg11.dtd">
<svg version="1.1" id="Capa_1" xmlns="http://www.w3.org/2000/svg" xmlns:xlink="http://www.w3.org/1999/xlink" x="0px" y="0px"
	 width="64px" height="64px" viewBox="0 0 64 64" enable-background="new 0 0 64 64" xml:space="preserve">
<g>
	<path d="M2.331,33.672c0.744,0.998,3.015,2.47,7.619,3.766c1.699,0.478,3.579,0.886,5.573,1.236C20.417,39.533,26.078,40,32.021,40
		c6.093,0,11.896-0.488,16.872-1.388c1.855-0.336,3.605-0.724,5.198-1.173c5.351-1.506,7.553-3.251,7.865-4.211
		c-3.171-4.558-9.58-8.235-16.278-10.485c0.048-0.334,0.08-0.667,0.08-0.998c0-3.587-2.908-5.412-6.494-5.412H26.204
		c-3.587,0-6.494,1.825-6.494,5.412c0,0.239,0.015,0.48,0.04,0.721C12.533,24.754,5.511,28.715,2.331,33.672z M36.456,30.97
		c0,2.207-1.789,3.997-3.997,3.997c-2.207,0-3.997-1.789-3.997-3.997c0-0.589,0.135-1.145,0.364-1.648
		c0.629-1.383,2.015-2.348,3.632-2.348c1.618,0,3.004,0.966,3.632,2.348C36.321,29.825,36.456,30.38,36.456,30.97z M47.299,27.809
		c1.351-1.351,3.861-1.031,5.607,0.715c1.746,1.746,2.065,4.256,0.715,5.607c-1.351,1.351-3.861,1.031-5.607-0.715
		C46.268,31.67,45.948,29.16,47.299,27.809z M12.013,28.524c1.746-1.746,4.256-2.065,5.607-0.715
		c1.351,1.351,1.031,3.861-0.715,5.607c-1.745,1.746-4.256,2.065-5.607,0.715C9.948,32.779,10.268,30.269,12.013,28.524z"/>
	<path d="M32.021,42c-7.244,0-13.922-0.679-19.284-1.821C8.291,39.231,4.75,37.965,2.551,36.5c1.735,2.539,4.479,4.806,7.721,6.71
		c-0.068,0.26-0.105,0.523-0.105,0.789c0,4.51,9.901,8.167,22.116,8.167S54.398,48.51,54.398,44c0-0.264-0.037-0.524-0.103-0.782
		c3.585-2.105,6.562-4.653,8.242-7.521c-1.961,1.759-5.793,3.284-10.834,4.393C46.275,41.286,39.446,42,32.021,42z"/>
</g>
</svg>
