<?xml version="1.0" encoding="utf-8"?>
<!-- Generator: Adobe Illustrator 16.0.0, SVG Export Plug-In . SVG Version: 6.00 Build 0)  -->
<!DOCTYPE svg PUBLIC "-//W3C//DTD SVG 1.1//EN" "http://www.w3.org/Graphics/SVG/1.1/DTD/svg11.dtd">
<svg version="1.1" id="Layer_1" xmlns="http://www.w3.org/2000/svg" xmlns:xlink="http://www.w3.org/1999/xlink" x="0px" y="0px"
	 width="126px" height="126px" viewBox="0 0 126 126" enable-background="new 0 0 126 126" xml:space="preserve">
<g>
	<path d="M58.523,62.946c0-3.275-1.57-6.089-4.411-6.089c-2.788,0-4.413,2.652-4.413,6.198c0,3.572,1.678,6.089,4.439,6.089
		C56.927,69.144,58.523,66.492,58.523,62.946z"/>
	<path d="M114.608,63l9.891-9.741l-12.417-6.207l6.396-12.32l-13.727-2.066l2.276-13.694l-13.693,2.277L91.268,7.521l-12.32,6.396
		L72.74,1.501L63,11.392l-9.74-9.891l-6.208,12.417l-12.32-6.396l-2.067,13.727l-13.693-2.277l2.276,13.694L7.521,34.732
		l6.396,12.32L1.501,53.259L11.392,63l-9.891,9.741l12.417,6.207L7.521,91.268l13.727,2.066l-2.276,13.694l13.693-2.276
		l2.067,13.728l12.32-6.396l6.208,12.416l9.74-9.891l9.74,9.891l6.208-12.416l12.32,6.396l2.067-13.728l13.693,2.276l-2.276-13.694
		l13.727-2.066l-6.396-12.319l12.417-6.207L114.608,63z M63,107.086c-20.11,0-37.062-13.47-42.359-31.875H33.51v14.524
		c2.322,2.56,4.978,4.807,7.891,6.693V75.211h9.25v25.632c2.359,0.77,4.815,1.321,7.346,1.639V75.211h9.25v27.367
		c2.624-0.278,5.173-0.809,7.619-1.571V75.211h9.25v21.527c3.104-1.946,5.924-4.301,8.374-7.002V75.211h12.87
		C100.062,93.616,83.11,107.086,63,107.086z M27.644,53.88h4.52l2.219,7.713c0.623,2.166,1.191,4.249,1.625,6.522h0.082
		c0.459-2.191,1.028-4.357,1.65-6.441l2.328-7.794h4.384l-6.143,18.241H33.49L27.644,53.88z M45.343,63.135
		c0-5.466,3.492-9.553,8.877-9.553c5.603,0,8.66,4.195,8.66,9.229c0,5.981-3.627,9.607-8.958,9.607
		C48.51,72.418,45.343,68.332,45.343,63.135z M63.446,57.344V53.88h14.019v3.464h-4.979v14.777h-4.142V57.344H63.446z
		 M90.509,61.052v3.355h-6.711v4.331h7.497v3.383H79.656V53.88h11.259v3.383h-7.118v3.789H90.509z M95.947,67.492
		c1.435,0,2.382,1.029,2.409,2.464c0,1.407-0.947,2.462-2.409,2.462c-1.461,0-2.436-1.055-2.436-2.462
		C93.511,68.521,94.513,67.492,95.947,67.492z M93.782,53.88h4.303l-0.596,12.26h-3.084L93.782,53.88z M92.489,50.789V36.264
		c-2.45-2.701-5.271-5.057-8.374-7.003v21.528h-9.25V24.993c-2.446-0.763-4.995-1.293-7.619-1.571v27.367h-9.25V23.519
		c-2.53,0.317-4.986,0.869-7.346,1.639v25.632H41.4V29.571c-2.913,1.886-5.569,4.134-7.891,6.693v14.524H20.641
		C25.938,32.384,42.89,18.914,63,18.914s37.063,13.47,42.359,31.875H92.489z"/>
</g>
</svg>
