<?xml version="1.0" encoding="iso-8859-1"?>
<!-- Generator: Adobe Illustrator 16.0.0, SVG Export Plug-In . SVG Version: 6.00 Build 0)  -->
<!DOCTYPE svg PUBLIC "-//W3C//DTD SVG 1.1//EN" "http://www.w3.org/Graphics/SVG/1.1/DTD/svg11.dtd">
<svg version="1.1" id="Layer_1" xmlns="http://www.w3.org/2000/svg" xmlns:xlink="http://www.w3.org/1999/xlink" x="0px" y="0px"
	 width="100px" height="100px" viewBox="0 0 100 100" style="enable-background:new 0 0 100 100;" xml:space="preserve">
<g>
	<circle cx="71.447" cy="13.145" r="10.053"/>
	<path d="M97.568,15.448c-1.755-1.25-4.192-0.841-5.443,0.914c-3.286,4.612-12.333,11.092-20.495,7.792c0,0-0.976-0.425-2.076-0.667
		c-1.304-0.287-3.175-0.234-3.612-0.166c-0.028,0.002-0.055-0.002-0.083,0c-13.203,1.43-20.535,11.318-24.901,18.631
		c-1.105,1.852-0.5,4.247,1.35,5.352c0.197,0.118,0.402,0.209,0.609,0.289c-0.687,4.793,0.341,9.204,1.349,13.496
		c0.798,3.405,1.624,6.925,1.557,10.58c-0.072,3.851-1.458,6.709-3.801,7.841c-2.647,1.282-6.356,0.347-10.171-2.565l-1.266,1.659
		c3.065,2.338,6.146,3.549,8.872,3.549c1.244,0,2.414-0.252,3.474-0.765c3.077-1.486,4.892-5.015,4.979-9.681
		c0.071-3.916-0.785-7.565-1.612-11.094c-1.008-4.297-1.968-8.403-1.305-12.825c1.074-0.191,2.063-0.824,2.667-1.833
		c2.423-4.06,5.581-8.549,10.037-11.55l-3.551,16.577c-0.459,2.143,0.135,4.118,1.32,5.727l-1.114,14.91
		c-0.502,2.407-5.034,10.616-9.498,17.601c-1.477,2.312-0.8,5.383,1.511,6.86c0.829,0.53,1.755,0.783,2.67,0.783
		c1.638,0,3.242-0.81,4.189-2.292c5.274-8.252,11.061-18.278,11.061-22.756c0-1.587,0.221-4.681,0.476-7.711
		c2.485,3.75,5.285,8.112,6.138,9.826c0.612,2.052,0.601,10.769,0.201,17.731c-0.156,2.739,1.936,5.086,4.675,5.244
		c0.097,0.006,0.193,0.008,0.29,0.008c2.613,0,4.803-2.041,4.954-4.682c0.473-8.222,0.664-18.798-1.111-22.494
		c-1.392-2.898-6.166-10.096-8.291-13.258c0.245-0.499,0.442-1.038,0.569-1.63l4.649-21.698c0.005-0.023,0.006-0.045,0.01-0.068
		c0.055,0,0.11,0.008,0.165,0.008c8.765,0,16.702-5.5,21.473-12.198C99.733,19.136,99.324,16.699,97.568,15.448z"/>
	<path d="M7.952,73.031L4.091,69.93c-0.873-0.702-2.149-0.561-2.851,0.311c-0.702,0.873-0.562,2.149,0.311,2.85l3.938,3.165v8.602
		c0,0.042-3.454,6.803-3.454,6.803c-0.518,0.994-0.131,2.218,0.862,2.735c0.299,0.155,0.619,0.229,0.935,0.229
		c0.732,0,1.438-0.398,1.8-1.092l3.49-6.705l3.904,6.781c0.375,0.652,1.057,1.017,1.759,1.017c0.343,0,0.691-0.087,1.01-0.271
		c0.971-0.558,1.304-1.798,0.745-2.769l-3.406-5.917h12.618v6.928c0,1.12,0.908,2.028,2.027,2.028c1.12,0,2.028-0.908,2.028-2.028
		v-7.666c0.002-0.026,0.015-0.048,0.015-0.074v-6.412l-9.444-5.415H7.952z"/>
	<path d="M32.233,75.105c0.333,0.146,0.667,0.29,1,0.436c0.978,0.424,1.995,0.622,3.062,0.559c1.813-0.105,3.701-1.068,3.873-3.242
		c0.159-1.994-4.675-3.549-5.098-3.949c-1.253-1.181-1.674-2.563-3.082-3.564c-0.245-0.174-0.492-0.351-0.754-0.5
		c-0.157-0.088-0.208-0.19-0.189-0.36c0.06-0.582,0.119-1.163,0.165-1.745c0.083-1.043-0.218-1.992-1.055-2.607
		c-0.336-0.248-1.995-1.051-2.717,1.698c-0.158,0.598-0.37,1.192-0.654,1.738c-1.043,2.005-2.367,3.835-3.635,5.7
		c-0.579,0.851-1.156,1.701-1.731,2.549l8.867,5.05C30.284,76.869,31.994,75,32.233,75.105z"/>
</g>
</svg>
