<?xml version="1.0" encoding="utf-8"?>
<!-- Generator: Adobe Illustrator 18.0.0, SVG Export Plug-In . SVG Version: 6.00 Build 0)  -->
<!DOCTYPE svg PUBLIC "-//W3C//DTD SVG 1.1//EN" "http://www.w3.org/Graphics/SVG/1.1/DTD/svg11.dtd">
<svg version="1.1" id="Layer_1" xmlns="http://www.w3.org/2000/svg" xmlns:xlink="http://www.w3.org/1999/xlink" x="0px" y="0px"
	 viewBox="0 0 3852 740" enable-background="new 0 0 3852 740" xml:space="preserve">
<g>
	<path fill="#B36E41" d="M1556.6,649.1c2.3,6.5,3.4,13,3.4,19.5c0,8.8-1.9,16.7-5.6,23.7s-8.7,13-14.9,17.8
		c-6.2,4.9-13.2,8.6-21,11.2c-7.8,2.6-15.8,3.9-23.9,3.9c-12,0-23.4-3.3-33.9-10c-10.6-6.7-17.7-17.2-21.2-31.5l-50.8-130.4h-313
		l-50.3,130.4c-3.9,14.7-11,25.3-21.3,31.8c-10.3,6.5-21.2,9.8-33,9.8c-7.8,0-15.6-1.3-23.4-3.9c-7.8-2.6-14.7-6.3-20.8-11.2
		c-6-4.9-10.9-10.7-14.7-17.6c-3.8-6.8-5.6-14.5-5.6-23c0-3.3,0.2-6.6,0.7-10c0.5-3.4,1.5-6.9,3.2-10.5l205.1-512.7
		c8.1-22.8,16.3-41.4,24.4-55.9c8.1-14.5,16.8-25.9,26.1-34.2s19.4-14.1,30.3-17.3s23-4.9,36.4-4.9c13.7,0,26,1.7,37.1,5.1
		c11.1,3.4,21.2,9.4,30.5,17.8s18,19.9,26.1,34.4s16.1,32.8,23.9,54.9L1556.6,649.1z M1231.4,124.2l-128.9,347.2h259.3l-128.4-347.2
		H1231.4z"/>
	<path fill="#6D6E71" d="M1580,122.3c-8.5,0-15.9-1.4-22.2-4.1s-11.6-6.4-15.6-11s-7.2-9.8-9.3-15.6c-2.1-5.9-3.2-11.9-3.2-18.1
		s1-12.3,3.2-18.3c2.1-6,5.3-11.3,9.5-15.9c4.2-4.6,9.4-8.3,15.6-11.2s13.5-4.4,22-4.4h461.4c8.1,0,15.3,1.5,21.5,4.4
		s11.4,6.7,15.6,11.2s7.4,9.8,9.5,15.6c2.1,5.9,3.2,11.9,3.2,18.1s-1.1,12.2-3.2,18.1c-2.1,5.9-5.2,11.2-9.3,15.9
		s-9.3,8.5-15.6,11.2s-13.6,4.1-21.7,4.1h-164.1v540.5c0,10.4-1.9,19.6-5.6,27.6s-8.7,14.6-14.9,20s-13.2,9.4-21,12
		c-7.8,2.6-15.8,3.9-23.9,3.9c-8.1,0-16.1-1.3-23.9-3.9c-7.8-2.6-14.8-6.6-21-12s-11.2-12-14.9-20c-3.8-8-5.6-17.2-5.6-27.6V122.3
		H1580z"/>
	<path fill="#6D6E71" d="M2244.6,695.5c-7.5,11.1-15.9,19.1-25.2,23.9s-18.6,7.1-28.1,6.8c-7.5,0-14.7-1.4-21.7-4.1
		s-13.2-6.6-18.6-11.5c-5.4-4.9-9.6-10.5-12.7-16.8s-4.6-13.1-4.6-20.3c0-10.4,3.7-20.8,11.2-31.3l202.6-277.3l-189-256.3
		c-6.8-9.1-10.3-18.7-10.3-28.8c0-7.5,1.8-14.6,5.4-21.5c3.6-6.8,8.5-12.8,14.7-17.8s13.2-9.1,21-12.2s15.9-4.6,24.4-4.6
		c10.4,0,20.5,2.5,30.3,7.6s18.4,13.3,25.9,24.7l162.1,235.8l166.5-235.8c7.5-11.4,16-19.5,25.4-24.4s18.9-7.3,28.3-7.3
		c7.5,0,14.6,1.4,21.5,4.2s12.9,6.5,18.3,11.2s9.6,10.2,12.7,16.4s4.6,12.9,4.6,20c0,4.9-0.9,9.9-2.7,15.1
		c-1.8,5.2-4.6,10.4-8.5,15.6l-192.9,258.3l199.2,274.4c6.8,9.8,10.3,19.5,10.3,29.3c0,7.8-1.9,15.1-5.6,22
		c-3.8,6.8-8.7,12.9-14.9,18.1c-6.2,5.2-13.3,9.4-21.3,12.5s-16,4.6-24.2,4.6c-9.8,0-19.3-2.4-28.6-7.1s-17.5-12.6-24.6-23.7
		l-174.3-252.9L2244.6,695.5z"/>
</g>
<g>
	<g>
		<path fill="#6D6E71" d="M2920.8,689.6c-5,11.2-12.6,19.1-22.8,23.5c-10.2,4.4-20.7,6.6-31.4,6.6c-6.9,0-13.9-0.9-21-2.7
			c-7.1-1.8-13.7-4.4-19.6-8c-6-3.5-10.8-7.8-14.4-12.9c-3.7-5-5.5-10.9-5.5-17.7c0-5.9,1.6-12.6,4.9-20.2c3.3-7.5,6.4-15,9.5-22.4
			c40.7-94,81.5-187.3,122.2-280c40.7-92.7,81.5-186,122.2-280c3.1-7.4,6.6-14.4,10.7-21.1c4-6.7,8.7-12.6,14.1-17.7
			c5.4-5.2,11.4-9.2,18.2-12.2c6.7-3,14.5-4.4,23.4-4.4c7.7,0,15.1,0.9,22.2,2.7c7.1,1.8,13.4,4.5,19,8.2c5.6,3.7,10,8.3,13.3,13.7
			c3.3,5.5,4.9,11.9,4.9,19.3c0,5.9-1.4,12.5-4.3,19.7c-2.9,7.2-5.9,14.1-8.9,20.6c-43.1,98.1-85.8,195.6-128.3,292.4
			C3006.6,494,2963.8,591.5,2920.8,689.6z"/>
	</g>
</g>
<g>
	<g>
		<path fill="#6D6E71" d="M763.1,717.6c-13.4,0.1-25.8-1.5-37.2-5c-11.4-3.5-21.3-8.8-29.5-16c-8.3-7.1-14.8-16.1-19.5-27
			c-4.7-10.8-7.2-23.6-7.3-38.2c-0.1-14.2,2-26.8,6.3-37.7c4.4-10.9,10.6-20.1,18.7-27.5c8.1-7.4,17.8-13,29.1-16.9
			c11.3-3.9,23.9-5.9,37.7-6c13.6-0.1,26.1,1.6,37.5,5.1c11.4,3.5,21.2,8.9,29.5,16.1c8.2,7.2,14.7,16.3,19.4,27.1
			c4.7,10.8,7.1,23.5,7.2,37.8c0.1,14.1-1.9,26.5-6.2,37.4c-4.3,10.9-10.4,20.1-18.4,27.6c-8,7.5-17.7,13.2-29,17.1
			C789.8,715.4,777.1,717.4,763.1,717.6z M762.6,670.2c20.2-0.2,35.3-3.6,45.5-10.1c10.2-6.5,15.2-16.6,15.1-30.3
			c-0.1-13.4-5.4-23.3-15.7-29.8c-10.3-6.5-25.6-9.6-45.8-9.4c-9.7,0.1-18.4,1-26,2.6c-7.6,1.7-14,4.1-19.1,7.4
			c-5.2,3.3-9.1,7.5-11.8,12.5c-2.7,5-4,11-3.9,17.9c0.1,6.8,1.5,12.7,4.3,17.7c2.8,5,6.8,9.1,12,12.2c5.2,3.2,11.7,5.5,19.3,7.1
			C744.2,669.6,752.8,670.3,762.6,670.2z"/>
		<path fill="#6D6E71" d="M825.1,467.7c3.3,0,6.4,0.5,9.3,1.7c2.9,1.2,5.4,2.8,7.6,4.9c2.2,2,3.9,4.4,5.1,7.1
			c1.2,2.7,1.9,5.6,1.9,8.8s-0.5,6.1-1.7,8.9c-1.2,2.7-2.9,5.1-5,7.2c-2.1,2.1-4.6,3.7-7.5,4.9c-2.9,1.2-6,1.8-9.3,1.9l-119.8,1.2
			c-4.6,0-9-0.2-13.1-0.8c-4.1-0.6-7.7-1.8-10.7-3.8c-3-2-5.4-4.9-7.2-8.7c-1.8-3.8-2.7-9.1-2.8-15.6l-0.5-44
			c-0.1-9.3,0.6-18.3,2.2-27c1.5-8.7,4.3-16.4,8.4-23.1c4-6.7,9.6-12.1,16.6-16.1c7-4.1,15.9-6.1,26.7-6.2
			c9.3-0.1,17.5,1.5,24.4,4.9c6.9,3.4,12.7,8.2,17.3,14.4c4.6,6.3,8.1,13.8,10.4,22.6c2.3,8.8,3.5,18.6,3.7,29.3l0.3,27.9
			L825.1,467.7z M754,448c-0.1-5.2-0.5-9.9-1.5-14.2c-0.9-4.3-2.5-8-4.6-11c-2.1-3-4.9-5.4-8.3-7c-3.4-1.7-8-2.5-13.8-2.4
			c-5.7,0.1-10.2,0.9-13.4,2.6c-3.3,1.7-5.9,3.9-7.9,6.8c-2,2.9-3.4,6.4-4.3,10.4c-0.9,4-1.3,8.5-1.2,13.4l0.2,22.5l55-0.6L754,448z
			"/>
		<path fill="#6D6E71" d="M847.4,321.1c0,4.1-0.8,7.6-2.5,10.4s-3.9,5.1-6.6,6.8c-2.7,1.7-5.8,3-9.2,3.8c-3.4,0.8-6.8,1.2-10.2,1.2
			l-116.1,1.2c-4.6,0-8.9-0.2-12.9-0.7c-3.9-0.5-7.3-1.8-10.2-3.7c-2.9-1.9-5.1-4.7-6.8-8.5c-1.7-3.7-2.5-8.7-2.6-15.1l-0.8-78.2
			c0-2.4,0.4-4.6,1.2-6.7c0.8-2.1,2-3.9,3.4-5.5c1.4-1.6,3.1-2.8,5-3.7c1.9-0.9,4-1.4,6.2-1.4c2.2,0,4.3,0.4,6.2,1.3
			c1.9,0.9,3.6,2.1,5,3.6c1.4,1.5,2.6,3.3,3.4,5.4c0.8,2.1,1.3,4.3,1.3,6.6l0.6,62.8l39.5-0.4l-0.6-57.3c0-2.4,0.4-4.6,1.1-6.7
			c0.8-2.1,1.9-3.9,3.4-5.5c1.4-1.6,3.1-2.8,5-3.7c1.9-0.9,3.9-1.4,6.1-1.4c2.2,0,4.3,0.4,6.2,1.3c1.9,0.9,3.6,2.1,5,3.6
			c1.4,1.5,2.6,3.3,3.4,5.4c0.8,2.1,1.3,4.3,1.3,6.6l0.6,57.3l42.7-0.4l-0.7-65.8c0-2.2,0.4-4.2,1.2-6.2c0.8-1.9,1.9-3.6,3.4-5.1
			c1.4-1.5,3.1-2.6,5-3.5c1.9-0.8,4-1.3,6.1-1.3c2.2,0,4.3,0.4,6.2,1.2c1.9,0.8,3.6,1.9,5,3.4c1.4,1.4,2.6,3.1,3.4,5
			c0.8,1.9,1.3,3.9,1.3,6.1L847.4,321.1z"/>
		<path fill="#6D6E71" d="M826.5,151.2c2.7,0,5.2,0.5,7.5,1.4c2.3,1,4.4,2.4,6.1,4.1c1.7,1.7,3.1,3.7,4.1,6.1c1,2.3,1.6,4.8,1.6,7.5
			c0,2.7-0.5,5.2-1.4,7.5c-1,2.3-2.3,4.4-4,6.1c-1.7,1.7-3.7,3.1-6,4.1c-2.3,1-4.8,1.5-7.5,1.5l-133.1,1.4c-4,0-7.5-0.5-10.6-1.7
			c-3.1-1.1-5.7-2.7-7.8-4.7c-2.1-2-3.8-4.3-4.9-7c-1.1-2.7-1.7-5.5-1.7-8.6c0-2.6,0.5-5.1,1.4-7.6c1-2.5,2.3-4.9,4-7.2
			c1.7-2.3,3.7-4.5,6-6.6c2.3-2.1,4.7-4.2,7.3-6.2l96.8-72.9l-97.4,1c-2.7,0-5.2-0.4-7.5-1.4c-2.3-1-4.3-2.3-6.1-4
			c-1.7-1.7-3.1-3.7-4.1-6c-1-2.3-1.6-4.8-1.6-7.5c0-2.7,0.5-5.2,1.4-7.5c1-2.3,2.3-4.4,4-6.1c1.7-1.7,3.7-3.1,6-4.1
			c2.3-1,4.8-1.6,7.5-1.6l124.1-1.3c4.5,0,8.8,0.2,12.9,0.6c4.1,0.4,7.7,1.4,10.8,2.9c3.1,1.5,5.6,3.7,7.5,6.5
			c1.9,2.8,2.9,6.6,2.9,11.3c0,2.5-0.4,5-1.4,7.4c-1,2.4-2.3,4.7-3.9,7c-1.7,2.3-3.7,4.4-6,6.6c-2.3,2.1-4.8,4.2-7.4,6.3l-98,73.7
			L826.5,151.2z"/>
	</g>
</g>
<g>
	<path fill="#6D6E71" d="M3270,534.5l399.3-156L3270,223.6V102.2l574.5,234.2v84.2L3270,655.9V534.5z"/>
</g>
<g>
	<path fill="#6D6E71" d="M591.6,655.9L17.1,420.6v-84.2l574.5-234.2v121.4L192.3,378.5l399.3,156V655.9z"/>
</g>
</svg>
