<?xml version="1.0" encoding="utf-8"?>
<!-- Generator: Adobe Illustrator 16.0.4, SVG Export Plug-In . SVG Version: 6.00 Build 0)  -->
<!DOCTYPE svg PUBLIC "-//W3C//DTD SVG 1.1//EN" "http://www.w3.org/Graphics/SVG/1.1/DTD/svg11.dtd">
<svg version="1.1" id="Capa_1" xmlns="http://www.w3.org/2000/svg" xmlns:xlink="http://www.w3.org/1999/xlink" x="0px" y="0px"
	 width="308px" height="512.053px" viewBox="0 0 308 512.053" enable-background="new 0 0 308 512.053" xml:space="preserve">
<path d="M263,44.5C233,14.833,196.667,0,154,0S75,14.833,45,44.5S0,110,0,152c0,25.333,12.833,67.667,38.5,127
	c25.667,59.334,51.333,113.334,77,162s38.5,72.334,38.5,71c4-7.334,9.5-17.334,16.5-30s19.333-36.5,37-71.5s33.167-67.166,46.5-96.5
	c13.334-29.332,25.667-59.667,37-91s17-55,17-71C308,110,293,74.167,263,44.5z M187,184c-9.333,9.333-20.5,14-33.5,14
	s-24.167-4.667-33.5-14s-14-20.5-14-33.5s4.667-24,14-33s20.5-13.5,33.5-13.5s24.167,4.5,33.5,13.5s14,20,14,33
	S196.333,174.667,187,184z"/>
</svg>
